<svg width="26" height="26" viewBox="0 0 26 26" fill="none" xmlns="http://www.w3.org/2000/svg">
<path d="M3.28024 0.539967L13 10.2594L22.6798 0.579965C23.0226 0.215187 23.4991 0.00579965 23.9997 0C25.1043 0 25.9997 0.895345 25.9997 1.99988C26.0091 2.49545 25.8137 2.97302 25.4597 3.3198L15.6799 12.9992L25.4597 22.7786C25.7893 23.101 25.9827 23.5378 25.9997 23.9985C25.9997 25.1031 25.1043 25.9984 23.9997 25.9984C23.4843 26.0198 22.9838 25.8238 22.6198 25.4584L13 15.739L3.30024 25.4384C2.95885 25.791 2.49086 25.9926 2.00027 25.9984C0.895702 25.9984 0.000324137 25.1031 0.000324137 23.9985C-0.00907563 23.503 0.186319 23.0254 0.540311 22.6786L10.3201 12.9992L0.540311 3.2198C0.210719 2.89742 0.0173237 2.46065 0.000324137 1.99988C0.000324137 0.895345 0.895702 0 2.00027 0C2.48106 0.00579965 2.94045 0.199588 3.28024 0.539967Z" fill="#9D9D9D"/>
</svg>
